<svg xmlns="http://www.w3.org/2000/svg" viewBox="0 0 560 120" width="560" height="120" role="img" aria-label="VIAIPCAM">
  <title>VIAIPCAM — logo horizontal (double regard, fond clair)</title>
  <g transform="translate(2,6) scale(1.3)">
    <g transform="translate(54,56) scale(-1,1)">
      <circle cx="0" cy="0" r="17" fill="none" stroke="#1e293b" stroke-width="6"></circle>
      <circle cx="0" cy="0" r="6" fill="#ea580c"></circle>
      <path d="M24.6 -10.8 A27 27 0 0 0 7.5 -26" fill="none" stroke="#1e293b" stroke-width="6" stroke-linecap="round"></path>
      <path d="M33.5 -14.7 A37 37 0 0 0 10 -35.5" fill="none" stroke="#1e293b" stroke-width="6" stroke-linecap="round"></path>
    </g>
    <g transform="translate(106,56)">
      <circle cx="0" cy="0" r="17" fill="none" stroke="#1e293b" stroke-width="6"></circle>
      <circle cx="0" cy="0" r="6" fill="#ea580c"></circle>
      <path d="M24.6 -10.8 A27 27 0 0 0 7.5 -26" fill="none" stroke="#1e293b" stroke-width="6" stroke-linecap="round"></path>
      <path d="M33.5 -14.7 A37 37 0 0 0 10 -35.5" fill="none" stroke="#1e293b" stroke-width="6" stroke-linecap="round"></path>
    </g>
  </g>
  <text x="222" y="82" font-family="&#39;Outfit&#39;,&#39;Segoe UI&#39;,system-ui,-apple-system,sans-serif" font-size="60" font-weight="700" letter-spacing="-0.6" fill="#1e293b">VIA<tspan fill="#ea580c">IP</tspan>CAM</text>
</svg>